<svg width="365" height="106" viewBox="0 0 365 106" fill="none" xmlns="http://www.w3.org/2000/svg">
<g clip-path="url(#clip0_12_3678)">
<path d="M108.31 88.3742C108.076 88.3742 107.87 88.2867 107.7 88.1154C107.527 87.944 107.444 87.7363 107.444 87.4993V77.9923C107.444 77.7554 107.531 77.5512 107.7 77.3763C107.87 77.2013 108.076 77.1174 108.31 77.1174H110.5C112.246 77.1174 113.599 77.584 114.566 78.5136C115.533 79.4432 116.013 80.8393 116.013 82.7021C116.013 84.5648 115.536 85.961 114.58 86.927C113.624 87.893 112.304 88.3742 110.619 88.3742H108.31ZM109.677 86.4568C109.677 86.526 109.71 86.5625 109.782 86.5625H110.37C112.614 86.5625 113.736 85.2757 113.736 82.7021C113.736 81.3752 113.448 80.4128 112.867 79.815C112.289 79.2171 111.456 78.9146 110.367 78.9146H109.779C109.71 78.9146 109.674 78.9547 109.674 79.0349V86.4604L109.677 86.4568Z" fill="#25B2CA"/>
<path d="M119.433 88.3742C119.198 88.3742 118.993 88.2867 118.823 88.1154C118.65 87.944 118.567 87.7363 118.567 87.4993V77.9923C118.567 77.7554 118.653 77.5512 118.823 77.3763C118.993 77.2013 119.198 77.1174 119.433 77.1174H119.931C120.165 77.1174 120.371 77.2049 120.54 77.3763C120.71 77.5512 120.796 77.7554 120.796 77.9923V87.4993C120.796 87.7363 120.71 87.944 120.54 88.1154C120.367 88.2867 120.165 88.3742 119.931 88.3742H119.433Z" fill="#25B2CA"/>
<path d="M128.69 88.582C127.925 88.582 127.218 88.4544 126.572 88.2029C125.926 87.9513 125.364 87.5832 124.88 87.1056C124.4 86.6244 124.022 86.0157 123.747 85.2793C123.473 84.543 123.336 83.7118 123.336 82.7896C123.336 81.8673 123.477 81.0653 123.755 80.318C124.036 79.5707 124.418 78.951 124.902 78.4553C125.389 77.9595 125.952 77.5767 126.601 77.3106C127.247 77.0445 127.943 76.9097 128.69 76.9097C129.74 76.9097 130.671 77.2013 131.482 77.7845C131.688 77.934 131.793 78.1527 131.793 78.437C131.793 78.6558 131.72 78.849 131.573 79.0166L131.5 79.1041C131.352 79.2828 131.161 79.3812 130.927 79.4031H130.837C130.631 79.4031 130.44 79.3484 130.263 79.239C129.823 78.9729 129.321 78.838 128.762 78.838C127.821 78.838 127.063 79.188 126.482 79.8842C125.905 80.5841 125.616 81.5246 125.616 82.713C125.616 83.9597 125.894 84.9257 126.453 85.611C127.012 86.2927 127.831 86.6354 128.906 86.6354C129.448 86.6354 129.888 86.5151 130.23 86.2781C130.277 86.238 130.303 86.1797 130.303 86.0995V84.1092C130.303 84.029 130.267 83.9889 130.198 83.9889H129.199C128.964 83.9889 128.759 83.905 128.589 83.7373C128.419 83.5697 128.333 83.3619 128.333 83.114V83.0265C128.333 82.7896 128.419 82.5818 128.589 82.4104C128.762 82.2391 128.964 82.1516 129.199 82.1516H131.432C131.666 82.1516 131.872 82.2391 132.042 82.4104C132.211 82.5854 132.298 82.7896 132.298 83.0265V86.3547C132.298 87.0072 132.067 87.4774 131.605 87.7654C130.754 88.3086 129.776 88.582 128.679 88.582H128.69Z" fill="#25B2CA"/>
<path d="M135.931 88.3742C135.696 88.3742 135.49 88.2867 135.321 88.1154C135.148 87.944 135.065 87.7363 135.065 87.4993V77.9923C135.065 77.7554 135.151 77.5512 135.321 77.3763C135.49 77.2013 135.696 77.1174 135.931 77.1174H136.428C136.663 77.1174 136.869 77.2049 137.038 77.3763C137.208 77.5512 137.294 77.7554 137.294 77.9923V87.4993C137.294 87.7363 137.208 87.944 137.038 88.1154C136.865 88.2867 136.663 88.3742 136.428 88.3742H135.931Z" fill="#25B2CA"/>
<path d="M143.481 88.3742C143.236 88.3742 143.03 88.2867 142.865 88.1154C142.699 87.9441 142.616 87.7363 142.616 87.4993V79.1078C142.616 79.0276 142.576 78.9911 142.497 78.9911H140.35C140.105 78.9911 139.899 78.9073 139.733 78.7396C139.567 78.5719 139.484 78.3641 139.484 78.1163V77.996C139.484 77.759 139.567 77.5549 139.733 77.3799C139.899 77.2086 140.105 77.1211 140.35 77.1211H147.125C147.371 77.1211 147.576 77.2086 147.742 77.3799C147.908 77.5549 147.991 77.759 147.991 77.996V78.1163C147.991 78.3641 147.908 78.5719 147.742 78.7396C147.576 78.9073 147.371 78.9911 147.125 78.9911H144.95C144.87 78.9911 144.831 79.0312 144.831 79.1078V87.4993C144.831 87.7363 144.748 87.9441 144.582 88.1154C144.416 88.2867 144.21 88.3742 143.965 88.3742H143.478H143.481Z" fill="#25B2CA"/>
<path d="M156.458 88.3742C156.202 88.3742 155.971 88.294 155.766 88.1372C155.56 87.9769 155.423 87.7764 155.354 87.5285L154.838 85.5965C154.817 85.5163 154.77 85.4762 154.69 85.4762H151.296C151.227 85.4762 151.184 85.5163 151.162 85.5965L150.632 87.5285C150.563 87.7764 150.43 87.9805 150.228 88.1372C150.026 88.294 149.798 88.3742 149.542 88.3742H149.012C148.795 88.3742 148.626 88.2867 148.496 88.1081C148.417 87.9987 148.381 87.8821 148.381 87.7508C148.381 87.6816 148.391 87.6123 148.409 87.5431L151.454 77.9486C151.534 77.7007 151.674 77.5002 151.88 77.3471C152.086 77.194 152.32 77.1174 152.587 77.1174H153.467C153.724 77.1174 153.954 77.194 154.164 77.3471C154.377 77.5002 154.521 77.7007 154.597 77.9486L157.656 87.5431C157.674 87.6123 157.685 87.6816 157.685 87.7508C157.685 87.8784 157.642 87.9987 157.551 88.1081C157.425 88.2867 157.259 88.3742 157.053 88.3742H156.451H156.458ZM151.711 83.6207C151.7 83.6499 151.703 83.679 151.718 83.7045C151.732 83.7301 151.754 83.741 151.783 83.741H154.211C154.239 83.741 154.265 83.7301 154.283 83.7045C154.301 83.679 154.308 83.6535 154.297 83.6207L153.987 82.5089C153.861 82.0641 153.684 81.4007 153.457 80.5258C153.233 79.6509 153.085 79.0932 153.016 78.8563C153.016 78.838 153.006 78.8271 152.988 78.8271C152.97 78.8271 152.952 78.838 152.944 78.8563C152.659 80.0665 152.345 81.2804 152.003 82.5089L151.711 83.6207Z" fill="#25B2CA"/>
<path d="M160.466 88.3742C160.232 88.3742 160.026 88.2867 159.857 88.1154C159.684 87.944 159.601 87.7363 159.601 87.4993V77.9923C159.601 77.7554 159.687 77.5512 159.857 77.3763C160.026 77.2013 160.232 77.1174 160.466 77.1174H160.964C161.199 77.1174 161.404 77.2049 161.574 77.3763C161.744 77.5512 161.83 77.7554 161.83 77.9923V86.3839C161.83 86.4531 161.863 86.4896 161.935 86.4896H165.477C165.712 86.4896 165.918 86.5771 166.087 86.7484C166.257 86.9197 166.343 87.1275 166.343 87.3644V87.4993C166.343 87.7363 166.257 87.944 166.087 88.1154C165.918 88.2867 165.712 88.3742 165.477 88.3742H160.463H160.466Z" fill="#25B2CA"/>
<path d="M234.745 88.3742C234.51 88.3742 234.305 88.2867 234.135 88.1154C233.962 87.944 233.879 87.7363 233.879 87.4993V77.9923C233.879 77.7554 233.966 77.5512 234.135 77.3763C234.305 77.2013 234.51 77.1174 234.745 77.1174H235.243C235.477 77.1174 235.683 77.2049 235.853 77.3763C236.022 77.5512 236.109 77.7554 236.109 77.9923V86.3839C236.109 86.4531 236.141 86.4896 236.213 86.4896H239.756C239.991 86.4896 240.196 86.5771 240.366 86.7484C240.535 86.9197 240.622 87.1275 240.622 87.3644V87.4993C240.622 87.7363 240.535 87.944 240.366 88.1154C240.196 88.2867 239.991 88.3742 239.756 88.3742H234.741H234.745Z" fill="#25B2CA"/>
<path d="M243.793 88.3742C243.559 88.3742 243.353 88.2867 243.183 88.1154C243.01 87.944 242.927 87.7363 242.927 87.4993V77.9923C242.927 77.7554 243.014 77.5512 243.183 77.3763C243.353 77.2013 243.559 77.1174 243.793 77.1174H244.291C244.525 77.1174 244.731 77.2049 244.901 77.3763C245.07 77.5512 245.157 77.7554 245.157 77.9923V87.4993C245.157 87.7363 245.07 87.944 244.901 88.1154C244.727 88.2867 244.525 88.3742 244.291 88.3742H243.793Z" fill="#25B2CA"/>
<path d="M253.05 88.582C252.285 88.582 251.578 88.4544 250.933 88.2029C250.287 87.9513 249.724 87.5832 249.241 87.1056C248.761 86.6244 248.382 86.0157 248.108 85.2793C247.834 84.543 247.697 83.7118 247.697 82.7896C247.697 81.8673 247.837 81.0653 248.115 80.318C248.396 79.5707 248.779 78.951 249.262 78.4553C249.749 77.9595 250.312 77.5767 250.961 77.3106C251.607 77.0445 252.304 76.9097 253.05 76.9097C254.1 76.9097 255.031 77.2013 255.843 77.7845C256.048 77.934 256.153 78.1527 256.153 78.437C256.153 78.6558 256.081 78.849 255.933 79.0166L255.861 79.1041C255.713 79.2828 255.522 79.3812 255.287 79.4031H255.197C254.991 79.4031 254.8 79.3484 254.623 79.239C254.183 78.9729 253.682 78.838 253.122 78.838C252.181 78.838 251.423 79.188 250.842 79.8842C250.265 80.5841 249.977 81.5246 249.977 82.713C249.977 83.9597 250.254 84.9257 250.814 85.611C251.373 86.2927 252.192 86.6354 253.267 86.6354C253.808 86.6354 254.248 86.5151 254.591 86.2781C254.638 86.238 254.663 86.1797 254.663 86.0995V84.1092C254.663 84.029 254.627 83.9889 254.558 83.9889H253.559C253.325 83.9889 253.119 83.905 252.949 83.7373C252.78 83.5697 252.693 83.3619 252.693 83.114V83.0265C252.693 82.7896 252.78 82.5818 252.949 82.4104C253.122 82.2391 253.325 82.1516 253.559 82.1516H255.792C256.027 82.1516 256.232 82.2391 256.402 82.4104C256.571 82.5854 256.658 82.7896 256.658 83.0265V86.3547C256.658 87.0072 256.427 87.4774 255.965 87.7654C255.114 88.3086 254.136 88.582 253.04 88.582H253.05Z" fill="#25B2CA"/>
<path d="M260.291 88.3742C260.057 88.3742 259.851 88.2867 259.681 88.1154C259.508 87.944 259.425 87.7363 259.425 87.4993V77.9923C259.425 77.7554 259.512 77.5512 259.681 77.3763C259.851 77.2013 260.057 77.1174 260.291 77.1174H260.789C261.023 77.1174 261.229 77.2049 261.399 77.3763C261.568 77.5512 261.655 77.7554 261.655 77.9923V81.4371C261.655 81.5064 261.687 81.5429 261.759 81.5429H265.757C265.825 81.5429 265.861 81.5064 265.861 81.4371V77.9923C265.861 77.7554 265.948 77.5512 266.118 77.3763C266.287 77.2049 266.493 77.1174 266.727 77.1174H267.214C267.449 77.1174 267.654 77.2049 267.824 77.3763C267.994 77.5512 268.08 77.7554 268.08 77.9923V87.4993C268.08 87.7363 267.994 87.944 267.824 88.1154C267.654 88.2867 267.449 88.3742 267.214 88.3742H266.727C266.493 88.3742 266.287 88.2867 266.118 88.1154C265.948 87.944 265.861 87.7363 265.861 87.4993V83.6207C265.861 83.5405 265.825 83.504 265.757 83.504H261.759C261.691 83.504 261.655 83.5441 261.655 83.6207V87.4993C261.655 87.7363 261.568 87.944 261.399 88.1154C261.226 88.2867 261.023 88.3742 260.789 88.3742H260.291Z" fill="#25B2CA"/>
<path d="M274.282 88.3742C274.036 88.3742 273.831 88.2867 273.665 88.1154C273.499 87.9441 273.416 87.7363 273.416 87.4993V79.1078C273.416 79.0276 273.376 78.9911 273.297 78.9911H271.15C270.905 78.9911 270.699 78.9073 270.533 78.7396C270.367 78.5719 270.284 78.3641 270.284 78.1163V77.996C270.284 77.759 270.367 77.5549 270.533 77.3799C270.699 77.2086 270.905 77.1211 271.15 77.1211H277.925C278.171 77.1211 278.376 77.2086 278.542 77.3799C278.708 77.5549 278.791 77.759 278.791 77.996V78.1163C278.791 78.3641 278.708 78.5719 278.542 78.7396C278.376 78.9073 278.171 78.9911 277.925 78.9911H275.75C275.671 78.9911 275.631 79.0312 275.631 79.1078V87.4993C275.631 87.7363 275.548 87.9441 275.382 88.1154C275.216 88.2867 275.01 88.3742 274.765 88.3742H274.278H274.282Z" fill="#25B2CA"/>
<path d="M281.847 88.3742C281.613 88.3742 281.407 88.2867 281.237 88.1154C281.064 87.944 280.981 87.7363 280.981 87.4993V77.9923C280.981 77.7554 281.068 77.5512 281.237 77.3763C281.407 77.2013 281.613 77.1174 281.847 77.1174H282.345C282.579 77.1174 282.785 77.2049 282.955 77.3763C283.124 77.5512 283.211 77.7554 283.211 77.9923V81.4371C283.211 81.5064 283.243 81.5429 283.315 81.5429H287.313C287.381 81.5429 287.417 81.5064 287.417 81.4371V77.9923C287.417 77.7554 287.504 77.5512 287.673 77.3763C287.843 77.2049 288.049 77.1174 288.283 77.1174H288.77C289.005 77.1174 289.21 77.2049 289.38 77.3763C289.549 77.5512 289.636 77.7554 289.636 77.9923V87.4993C289.636 87.7363 289.549 87.944 289.38 88.1154C289.21 88.2867 289.005 88.3742 288.77 88.3742H288.283C288.049 88.3742 287.843 88.2867 287.673 88.1154C287.504 87.944 287.417 87.7363 287.417 87.4993V83.6207C287.417 83.5405 287.381 83.504 287.313 83.504H283.315C283.247 83.504 283.211 83.5441 283.211 83.6207V87.4993C283.211 87.7363 283.124 87.944 282.955 88.1154C282.781 88.2867 282.579 88.3742 282.345 88.3742H281.847Z" fill="#25B2CA"/>
<path d="M300.784 86.9926C299.867 88.0534 298.662 88.582 297.176 88.582C295.69 88.582 294.485 88.0534 293.565 86.9926C292.648 85.9318 292.19 84.5029 292.19 82.7021C292.19 80.9013 292.648 79.4833 293.557 78.4553C294.47 77.4236 295.675 76.9097 297.176 76.9097C298.677 76.9097 299.882 77.4236 300.791 78.4553C301.704 79.4869 302.158 80.9013 302.158 82.7021C302.158 84.5029 301.7 85.9355 300.784 86.9926ZM295.206 85.5673C295.697 86.2818 296.353 86.6354 297.183 86.6354C298.013 86.6354 298.67 86.2781 299.16 85.5673C299.651 84.8565 299.896 83.8977 299.896 82.7021C299.896 81.5064 299.651 80.5623 299.16 79.8733C298.67 79.1843 298.009 78.8417 297.176 78.8417C296.343 78.8417 295.682 79.188 295.199 79.8733C294.712 80.5623 294.47 81.5028 294.47 82.7021C294.47 83.9014 294.716 84.8565 295.206 85.5673Z" fill="#25B2CA"/>
<path d="M308.991 88.582C306.098 88.582 304.655 86.8249 304.655 83.3072V77.9887C304.655 77.7517 304.741 77.5476 304.911 77.3726C305.08 77.1976 305.286 77.1138 305.521 77.1138H306.022C306.257 77.1138 306.459 77.2013 306.632 77.3726C306.801 77.5476 306.888 77.7517 306.888 77.9887V83.5004C306.888 84.6305 307.068 85.4324 307.425 85.9136C307.783 86.3948 308.306 86.6354 308.991 86.6354C309.677 86.6354 310.232 86.3911 310.6 85.9063C310.968 85.4215 311.152 84.6195 311.152 83.5004V77.9887C311.152 77.7517 311.239 77.5476 311.408 77.3726C311.578 77.2013 311.784 77.1138 312.018 77.1138H312.429C312.664 77.1138 312.869 77.2013 313.039 77.3726C313.209 77.5476 313.295 77.7517 313.295 77.9887V83.3072C313.295 85.1299 312.927 86.464 312.191 87.3098C311.455 88.1555 310.387 88.5783 308.988 88.5783L308.991 88.582Z" fill="#25B2CA"/>
<path d="M319.511 88.582C318.277 88.582 317.148 88.2211 316.131 87.4993C315.936 87.3608 315.828 87.1676 315.806 86.9197C315.795 86.8906 315.792 86.865 315.792 86.8468C315.792 86.6281 315.864 86.4349 316.012 86.2672L316.174 86.074C316.322 85.8844 316.517 85.7824 316.762 85.7605H316.867C317.062 85.7605 317.249 85.8152 317.426 85.9245C318.14 86.3984 318.858 86.6354 319.572 86.6354C320.139 86.6354 320.575 86.5224 320.882 86.2927C321.185 86.0667 321.337 85.7459 321.337 85.3413C321.337 84.9731 321.218 84.6997 320.983 84.5174C320.749 84.3352 320.345 84.1201 319.778 83.8722C319.728 83.854 319.695 83.8358 319.673 83.8285L318.173 83.1906C317.527 82.9135 316.989 82.5271 316.564 82.0313C316.138 81.5356 315.925 80.9122 315.925 80.1576C315.925 79.2281 316.286 78.4516 317.015 77.8319C317.74 77.2122 318.66 76.9024 319.778 76.9024C320.817 76.9024 321.759 77.194 322.599 77.7772C322.805 77.9158 322.917 78.1163 322.938 78.3714V78.4443C322.938 78.6631 322.866 78.8563 322.718 79.0239L322.69 79.0677C322.542 79.2572 322.347 79.363 322.101 79.3958C322.055 79.4067 322.004 79.4104 321.954 79.4104C321.766 79.4104 321.589 79.363 321.423 79.2609C320.915 78.9729 320.366 78.8307 319.778 78.8307C319.287 78.8307 318.898 78.9365 318.602 79.1442C318.31 79.352 318.162 79.6437 318.162 80.0228C318.162 80.2123 318.202 80.3727 318.281 80.5112C318.36 80.6498 318.49 80.7773 318.671 80.8976C318.851 81.0179 319.013 81.1127 319.158 81.182C319.302 81.2512 319.518 81.3387 319.811 81.4481C319.861 81.4663 319.894 81.4809 319.915 81.4918L321.369 82.1152C322.105 82.4214 322.664 82.8151 323.047 83.2963C323.429 83.7774 323.62 84.4044 323.62 85.1772C323.62 86.136 323.249 86.9452 322.509 87.5977C321.77 88.2503 320.774 88.5783 319.518 88.5783L319.511 88.582Z" fill="#25B2CA"/>
<path d="M326.81 88.3742C326.575 88.3742 326.369 88.2867 326.2 88.1154C326.027 87.944 325.944 87.7363 325.944 87.4993V77.9923C325.944 77.7554 326.03 77.5512 326.2 77.3763C326.369 77.2013 326.575 77.1174 326.81 77.1174H331.911C332.156 77.1174 332.362 77.2049 332.528 77.3763C332.694 77.5512 332.777 77.7554 332.777 77.9923V78.1126C332.777 78.3605 332.694 78.5683 332.528 78.736C332.362 78.9037 332.156 78.9875 331.911 78.9875H328.281C328.213 78.9875 328.177 79.0276 328.177 79.1041V81.4809C328.177 81.5502 328.209 81.5866 328.281 81.5866H331.222C331.456 81.5866 331.662 81.6741 331.831 81.8454C332.001 82.0204 332.088 82.2245 332.088 82.4615V82.5964C332.088 82.8442 332.001 83.052 331.831 83.2197C331.658 83.3874 331.456 83.4712 331.222 83.4712H328.281C328.213 83.4712 328.177 83.5113 328.177 83.5915V86.3839C328.177 86.4531 328.209 86.4896 328.281 86.4896H332.073C332.318 86.4896 332.524 86.5771 332.69 86.7484C332.856 86.9197 332.939 87.1275 332.939 87.3644V87.4993C332.939 87.7363 332.856 87.944 332.69 88.1154C332.524 88.2867 332.318 88.3742 332.073 88.3742H326.81Z" fill="#25B2CA"/>
<path d="M220.415 86.763C218.705 86.763 217.901 85.2538 217.19 83.9233C216.465 82.5672 215.963 81.7434 215.058 81.7434C214.152 81.7434 213.651 82.5672 212.926 83.9233C212.215 85.2538 211.411 86.763 209.701 86.763C207.991 86.763 207.186 85.2538 206.475 83.9196C205.75 82.5636 205.249 81.7397 204.343 81.7397C203.438 81.7397 202.936 82.5636 202.215 83.9196C201.504 85.2502 200.699 86.763 198.989 86.763C197.279 86.763 196.475 85.2538 195.764 83.9196C195.039 82.5636 194.537 81.7397 193.632 81.7397C192.726 81.7397 192.225 82.5636 191.503 83.9196C190.793 85.2502 189.988 86.763 188.278 86.763C186.568 86.763 185.764 85.2538 185.053 83.9196C184.328 82.5636 183.826 81.7397 182.924 81.7397C182.022 81.7397 181.517 82.5636 180.796 83.9196C180.085 85.2502 179.281 86.763 177.571 86.763C175.86 86.763 175.056 85.2538 174.345 83.9196C173.62 82.5636 173.119 81.7397 172.217 81.7397C171.874 81.7397 171.596 81.459 171.596 81.1127C171.596 80.7664 171.874 80.4857 172.217 80.4857C173.927 80.4857 174.731 81.9949 175.442 83.3291C176.167 84.6851 176.669 85.509 177.574 85.509C178.48 85.509 178.981 84.6851 179.703 83.3291C180.413 81.9985 181.218 80.4857 182.928 80.4857C184.638 80.4857 185.442 81.9949 186.153 83.3291C186.878 84.6851 187.38 85.509 188.282 85.509C189.184 85.509 189.689 84.6851 190.41 83.3291C191.121 81.9985 191.925 80.4857 193.636 80.4857C195.346 80.4857 196.15 81.9949 196.861 83.3254C197.586 84.6815 198.087 85.5053 198.993 85.5053C199.898 85.5053 200.4 84.6815 201.121 83.3254C201.832 81.9949 202.637 80.4821 204.347 80.4821C206.057 80.4821 206.861 81.9912 207.572 83.3254C208.297 84.6815 208.799 85.5053 209.704 85.5053C210.61 85.5053 211.111 84.6815 211.836 83.3254C212.547 81.9949 213.352 80.4857 215.062 80.4857C216.772 80.4857 217.576 81.9949 218.287 83.3254C219.012 84.6815 219.517 85.5053 220.419 85.5053C221.321 85.5053 221.826 84.6815 222.551 83.3254C223.262 81.9949 224.066 80.4857 225.776 80.4857C226.119 80.4857 226.397 80.7664 226.397 81.1127C226.397 81.459 226.119 81.7397 225.776 81.7397C224.874 81.7397 224.369 82.5636 223.644 83.9196C222.934 85.2502 222.129 86.7593 220.419 86.7593L220.415 86.763Z" fill="#25B2CA"/>
<path d="M180.608 17.7935C179.093 17.48 177.585 18.3767 177.195 19.8422C175.943 24.5155 174.172 29.207 172.065 33.4137C169.926 37.7881 167.364 41.7359 164.655 44.8308C163.619 46.0119 163.757 47.8127 164.969 48.848C166.195 49.8869 168.006 49.701 169.042 48.5308C170.2 47.1821 171.362 45.6656 172.509 44.0033V66.4221C172.509 67.9859 173.8 69.2618 175.384 69.2618C176.968 69.2618 178.259 67.9895 178.259 66.4221V33.811C180.175 29.6226 181.679 25.4013 182.722 21.2711C182.921 20.5311 182.812 19.7583 182.419 19.1022C182.029 18.4496 181.398 17.9867 180.608 17.7935Z" fill="#25B2CA"/>
<path d="M302.371 26.5532H306.715V27.4427C306.715 28.8461 308.006 29.9871 309.59 29.9871C311.174 29.9871 312.465 28.8461 312.465 27.4427V26.5532H319.886V27.4427C319.886 28.8461 321.174 29.9871 322.762 29.9871C324.349 29.9871 325.637 28.8461 325.637 27.4427V26.5532H329.981C331.568 26.5532 332.856 25.4122 332.856 24.0088C332.856 22.6053 331.568 21.4643 329.981 21.4643H325.637V20.2687C325.637 18.8689 324.345 17.7279 322.762 17.7279C321.178 17.7279 319.886 18.8689 319.886 20.2687V21.4643H312.465V20.2687C312.465 18.8689 311.174 17.7279 309.59 17.7279C308.006 17.7279 306.715 18.8689 306.715 20.2687V21.4643H302.371C300.784 21.4643 299.496 22.6053 299.496 24.0088C299.496 25.4122 300.787 26.5532 302.371 26.5532Z" fill="#25B2CA"/>
<path d="M332.971 40.3216C327.542 37.9339 324.115 35.6228 320.326 31.7952C319.251 30.7089 317.7 30.06 316.178 30.06C314.655 30.06 313.104 30.7089 312.029 31.7952C308.237 35.6264 304.81 37.9375 299.402 40.3179C298.316 40.7663 297.616 41.8234 297.616 43.0082C297.616 44.6121 298.904 45.9135 300.491 45.9135C300.91 45.9135 301.314 45.8224 301.675 45.6547C302.905 45.1115 304.049 44.572 305.131 44.0106C304.918 44.4153 304.795 44.8782 304.795 45.3667C304.795 46.9706 306.087 48.272 307.671 48.272H324.685C326.272 48.272 327.56 46.967 327.56 45.3667C327.56 44.8782 327.441 44.4153 327.228 44.0106C328.303 44.5647 329.443 45.1042 330.662 45.6437C331.041 45.8187 331.449 45.9099 331.864 45.9099C333.448 45.9099 334.739 44.6048 334.739 43.0045C334.739 41.8198 334.036 40.7663 332.971 40.3216ZM307.894 42.4614C310.896 40.6387 313.472 38.5645 316.17 35.8633C316.199 35.8633 316.232 35.8779 316.257 35.9034C318.909 38.5791 321.463 40.646 324.454 42.4614H307.894Z" fill="#25B2CA"/>
<path d="M324.941 50.1566H307.411C305.116 50.1566 303.251 52.0413 303.251 54.3597V62.8788C303.251 65.1972 305.116 67.0819 307.411 67.0819H324.941C327.235 67.0819 329.1 65.1972 329.1 62.8788V54.3597C329.1 52.0413 327.231 50.1566 324.941 50.1566ZM320.727 61.2712H311.628C310.178 61.2712 309.005 60.0829 309.005 58.6211C309.005 57.1557 310.182 55.9709 311.628 55.9709H320.727C322.177 55.9709 323.35 57.1593 323.35 58.6211C323.35 60.0865 322.174 61.2712 320.727 61.2712Z" fill="#25B2CA"/>
<path d="M298.262 51.9137C297.764 51.9137 297.27 52.0449 296.844 52.2892C296.061 52.7266 295.246 53.1458 294.405 53.5395V37.8027H298.565C300.152 37.8027 301.44 36.4976 301.44 34.8973C301.44 33.297 300.149 31.992 298.565 31.992H294.405V22.8131C294.405 21.2092 293.114 19.9078 291.53 19.9078C289.946 19.9078 288.655 21.2128 288.655 22.8131V31.992H284.578C282.99 31.992 281.703 33.297 281.703 34.8973C281.703 36.4976 282.994 37.8027 284.578 37.8027H288.655V55.7486C287.071 56.2297 285.483 56.6125 283.943 56.8823C282.54 57.1083 281.519 58.3149 281.519 59.7511C281.519 60.6187 281.901 61.4353 282.568 61.9893C283.095 62.4268 283.741 62.6601 284.397 62.6601C284.574 62.6601 284.751 62.6419 284.928 62.6091C289.95 61.7196 295.166 59.8641 299.597 57.3926C300.545 56.8895 301.134 55.9017 301.134 54.819C301.134 53.2187 299.842 51.9137 298.258 51.9137H298.262Z" fill="#25B2CA"/>
<path d="M154.012 32.7685C154.781 32.7685 155.477 32.4805 156.014 31.9337C156.556 31.3869 156.841 30.687 156.841 29.9069C156.841 29.1268 156.556 28.4269 156.014 27.8801C155.473 27.3333 154.781 27.0453 154.012 27.0453H143.099C143.521 25.1789 143.918 23.0646 144.289 20.728C144.387 19.926 144.199 19.1714 143.741 18.5554C143.276 17.932 142.655 17.5493 141.88 17.418C141.1 17.2904 140.364 17.4691 139.744 17.9393C139.127 18.4059 138.744 19.0657 138.643 19.8276C137.431 27.7671 135.707 34.1245 133.51 38.765C133.438 38.6739 133.355 38.5828 133.272 38.4989C132.619 37.8391 131.821 37.5037 130.901 37.5037H123.744V36.9387H128.964C130.097 36.9387 131.064 36.5304 131.839 35.7248C132.608 34.9265 132.997 33.9641 132.997 32.8633V31.1281H134.296C134.964 31.1281 135.566 30.8766 136.039 30.399C136.511 29.9215 136.76 29.3236 136.76 28.6638C136.76 28.004 136.511 27.4099 136.039 26.9287C135.566 26.4511 134.964 26.1996 134.296 26.1996H132.997V24.5155C132.997 23.4182 132.608 22.4559 131.839 21.6539C131.064 20.8483 130.097 20.44 128.964 20.44H123.744V19.813C123.744 19.0694 123.477 18.4059 122.968 17.8919C121.951 16.8712 120.187 16.8712 119.173 17.8919C118.668 18.4059 118.397 19.0694 118.397 19.8094V20.4364H113.75C112.618 20.4364 111.651 20.8446 110.875 21.6502C110.107 22.4486 109.721 23.4109 109.721 24.5082V26.1923H108.472C107.805 26.1923 107.202 26.4438 106.733 26.9214C106.261 27.3989 106.012 27.9967 106.012 28.6566C106.012 29.3164 106.265 29.9178 106.733 30.3881C107.206 30.8656 107.809 31.1208 108.476 31.1208H109.724V32.856C109.724 33.9568 110.114 34.9192 110.882 35.7175C111.658 36.5232 112.625 36.9314 113.758 36.9314H118.404V37.4965H112.401C111.308 37.4965 110.352 37.9011 109.562 38.7031C108.768 39.505 108.368 40.4674 108.368 41.5719V44.3205C108.368 45.425 108.768 46.391 109.562 47.1894C110.352 47.9913 111.308 48.396 112.401 48.396H115.637C115.385 48.8808 115.114 49.3875 114.829 49.9124H108.584C107.906 49.9124 107.296 50.1822 106.827 50.6852C106.355 51.1883 106.12 51.8226 106.149 52.5152C106.174 53.1932 106.434 53.7983 106.896 54.2686C107.39 54.768 108.039 54.994 108.7 54.943L112.105 54.9029C111.543 55.9126 111.001 56.8349 110.489 57.6624C110.132 58.2602 110.067 58.9346 110.302 59.6017C110.536 60.2943 111.034 60.7828 111.737 61.0161L111.882 61.0634H112.008C112.61 61.2202 113.213 61.191 113.794 60.9796C114.241 60.8156 114.62 60.5531 114.919 60.1995C115.857 60.5823 116.759 60.9614 117.614 61.3296C115.511 62.1643 112.924 62.8205 109.883 63.2835C109.205 63.4074 108.664 63.8302 108.361 64.4718C108.058 65.1098 108.061 65.7768 108.368 66.3966C108.696 67.0564 109.154 67.5631 109.75 67.913C110.204 68.1682 110.695 68.2994 111.203 68.2994H111.716L111.81 68.2775C116.759 67.2459 120.702 65.857 123.52 64.151C124.992 64.9166 126.323 65.6748 127.46 66.3966C128.062 66.8012 128.744 66.9689 129.491 66.896C130.234 66.8194 130.869 66.5241 131.338 66.0466C131.919 65.518 132.178 64.8327 132.088 64.0672C132.005 63.3199 131.63 62.7148 130.988 62.2992C130.079 61.7378 129.018 61.14 127.828 60.5203C129.256 58.8799 130.353 56.8968 131.096 54.6112L134.466 54.5128C135.122 54.5128 135.728 54.2649 136.215 53.802C136.695 53.3427 136.977 52.7558 137.034 52.0231C137.034 51.3523 136.793 50.7508 136.338 50.2879C135.884 49.8286 135.292 49.5843 134.61 49.5843C128.831 49.6791 124.242 49.7447 120.854 49.7812C121.088 49.3401 121.334 48.8771 121.586 48.3814H130.234C131.327 48.3814 132.283 47.9767 133.073 47.1748C133.802 46.4384 134.202 45.5563 134.26 44.5611C134.675 44.6814 135.093 44.7579 135.602 44.6158C136.605 44.4918 137.37 43.9742 137.825 43.0993C137.958 42.8332 138.091 42.5525 138.229 42.2572C139.138 46.3619 140.289 50.1348 141.656 53.5103C139.581 57.0682 136.825 60.05 133.47 62.3685C132.835 62.795 132.431 63.4329 132.301 64.2239C132.175 64.9858 132.316 65.7076 132.767 66.4367C133.218 67.0418 133.82 67.4355 134.563 67.6104C135.328 67.7927 136.078 67.6651 136.8 67.2168C139.848 64.9895 142.471 62.3539 144.611 59.3793C146.465 62.4523 148.658 65.0077 151.169 67.009C151.851 67.5047 152.638 67.6979 153.435 67.574C154.218 67.4501 154.889 67.0636 155.43 66.4221C155.935 65.806 156.166 65.0697 156.087 64.2859C156.007 63.4949 155.636 62.8278 155.008 62.3503C152.295 60.2797 149.917 57.3379 147.955 53.6306C150.534 48.2502 152.461 41.2293 153.687 32.7502H154.016L154.012 32.7685ZM123.747 24.2166H127.604V26.3126H123.747V24.2166ZM123.747 30.975H127.604V33.1767H123.747V30.975ZM114.966 24.2166H118.401V26.3126H114.966V24.2166ZM114.966 33.1731V30.9713H118.401V33.1731H114.966ZM113.66 43.7919V42.1151H118.401V43.7919H113.66ZM117.961 54.8445C117.961 54.8445 117.961 54.8445 117.957 54.8445H117.961ZM125.302 54.706C124.649 56.0147 123.801 57.1739 122.788 58.1581C121.193 57.4327 119.415 56.7146 117.463 55.9965C117.607 55.7632 117.737 55.5371 117.852 55.3184C117.939 55.1544 118.022 54.9976 118.101 54.8409L125.299 54.7024L125.302 54.706ZM128.856 43.7919H123.747V42.1151H128.856V43.7919ZM147.724 34.1172C147.284 37.172 146.725 40.0008 146.057 42.578C145.754 43.7482 144.105 43.7518 143.795 42.5853C143.113 40.0117 142.515 37.1939 142.002 34.1464C141.883 33.4283 142.435 32.7685 143.157 32.7685H146.566C147.277 32.7685 147.829 33.41 147.724 34.1172Z" fill="#25B2CA"/>
<path d="M271.424 62.7877H264.36C264.447 62.6528 264.526 62.5107 264.595 62.3576C265.197 61.1072 265.886 59.5033 266.702 57.4655C267.016 56.7219 267.001 55.9454 266.658 55.2164C266.532 54.9576 266.377 54.7279 266.193 54.5347C267.088 54.4363 267.881 54.0535 268.556 53.3901C269.357 52.6063 269.761 51.6294 269.761 50.4847V44.4627C269.761 43.318 269.357 42.3411 268.556 41.5574C267.766 40.7809 266.814 40.3872 265.728 40.3872H248.84C247.751 40.3872 246.798 40.7809 246.008 41.5574C245.211 42.3411 244.807 43.318 244.807 44.4627V50.4847C244.807 51.6294 245.211 52.6063 246.008 53.3901C246.74 54.1118 247.613 54.5019 248.609 54.5529C248.285 54.8081 248.032 55.1435 247.862 55.5554C247.585 56.2225 247.588 56.9078 247.877 57.5457C248.58 59.0695 249.125 60.5641 249.482 61.9383C249.547 62.2482 249.659 62.5362 249.811 62.7877H242.566C241.83 62.7877 241.174 63.0575 240.669 63.5678C240.164 64.0781 239.893 64.7234 239.893 65.4342C239.893 66.145 240.16 66.7866 240.669 67.3006C241.174 67.8109 241.83 68.0844 242.566 68.0844H271.424C272.16 68.0844 272.817 67.8146 273.322 67.3006C273.827 66.7866 274.098 66.1414 274.098 65.4342C274.098 64.727 273.831 64.0781 273.322 63.5678C272.817 63.0575 272.16 62.7841 271.421 62.7841L271.424 62.7877ZM261.319 55.9017C260.814 57.5093 260.226 59.095 259.584 60.6005C259.295 61.2421 259.302 61.9383 259.613 62.6091C259.638 62.671 259.67 62.7294 259.699 62.7841H254.248C254.486 62.4596 254.652 62.1097 254.731 61.7306C254.836 61.253 254.814 60.7573 254.667 60.2542C254.234 58.6904 253.631 57.1411 252.892 55.683C252.682 55.22 252.379 54.8445 251.982 54.5602H262.163C261.777 54.9175 261.496 55.3658 261.323 55.898L261.319 55.9017ZM262.066 49.5297H252.343C251.221 49.5297 250.312 48.611 250.312 47.4774C250.312 46.3437 251.221 45.425 252.343 45.425H262.066C263.188 45.425 264.097 46.3437 264.097 47.4774C264.097 48.611 263.188 49.5297 262.066 49.5297Z" fill="#25B2CA"/>
<path d="M225.996 47.2768C226.386 47.3753 226.772 47.3898 227.151 47.3206C227.378 47.2805 227.598 47.2076 227.818 47.1055C228.453 46.8139 228.904 46.3072 229.124 45.6292C230.091 42.6108 230.228 38.6119 229.525 33.709C229.406 33.0601 229.095 32.5315 228.597 32.1342C228.118 31.7551 227.566 31.5619 226.877 31.5655C226.249 31.6275 225.693 31.9191 225.3 32.4149C224.918 32.8997 224.748 33.4902 224.806 34.1209V34.1573C225.369 38.3604 225.25 41.7469 224.441 44.3059C224.355 44.6923 224.34 45.0605 224.402 45.3959C224.441 45.6146 224.506 45.826 224.607 46.0447C224.889 46.6389 225.347 47.0545 226 47.2732L225.996 47.2768Z" fill="#25B2CA"/>
<path d="M273.647 35.1671C272.016 34.1464 270.411 32.8851 268.874 31.4015C269.949 30.6979 271.125 29.8741 272.348 28.9737C272.99 28.5618 273.362 27.9238 273.39 27.1729C273.419 26.4475 273.138 25.795 272.579 25.2883C272.048 24.8071 271.395 24.5701 270.656 24.5957C269.945 24.6212 269.321 24.8727 268.809 25.3357C267.856 26.1777 266.843 27.0016 265.757 27.8108C265.374 27.3041 264.985 26.7355 264.595 26.1194C265.843 25.2263 267.131 24.2275 268.408 23.1521C268.982 22.6892 269.285 22.0549 269.285 21.3222C269.285 20.5895 268.982 19.9588 268.448 19.5287C267.91 19.0402 267.247 18.8069 266.514 18.8616C265.804 18.9163 265.179 19.2261 264.739 19.7219C263.992 20.4765 263.188 21.231 262.351 21.9637C261.896 20.9722 261.503 20.0135 261.164 19.0766C260.904 18.4497 260.482 17.9721 259.872 17.6367C259.198 17.2977 258.52 17.2686 257.968 17.4071C257.286 17.5784 256.748 18.0122 256.416 18.6574C256.16 19.1532 256.07 19.6708 256.146 20.1739C255.955 20.0026 255.731 19.8677 255.478 19.7729L254.937 19.5032C254.436 19.299 253.913 19.2626 253.371 19.3829H245.384C244.717 19.3829 244.114 19.6344 243.642 20.1119C243.169 20.5895 242.92 21.1982 242.92 21.8726C242.92 22.547 243.169 23.1594 243.642 23.6333C244.114 24.1108 244.717 24.3624 245.384 24.3624H250.713C250.272 25.4049 249.764 26.4365 249.187 27.4427C248.548 26.8886 247.844 26.3163 247.076 25.7366C246.538 25.3575 245.911 25.2008 245.265 25.281C244.634 25.3612 244.078 25.6419 243.616 26.1085L243.54 26.196C243.443 26.3235 243.357 26.4584 243.284 26.5969C243.017 26.2652 242.671 26.01 242.26 25.8424C241.578 25.569 240.864 25.5945 240.193 25.9189C239.543 26.2324 239.078 26.7209 238.789 27.4244C238.295 28.8826 237.761 30.286 237.184 31.6275V20.6113C237.184 19.8349 236.91 19.1459 236.383 18.6137C235.333 17.5565 233.58 17.5602 232.533 18.6137C232.01 19.1423 231.733 19.8349 231.733 20.6113V36.9351C231.733 39.6253 231.653 41.9802 231.502 43.9377C231.35 45.8953 231.054 48.0752 230.625 50.4118C230.203 52.7011 229.517 54.8992 228.579 56.9479C227.645 58.9893 226.44 60.9176 224.99 62.6929C224.575 63.2142 224.362 63.8084 224.362 64.4536C224.362 65.2629 224.64 65.9773 225.213 66.6116C225.726 67.1293 226.35 67.4172 227.071 67.4683H227.194C227.912 67.4683 228.554 67.1803 229.063 66.608C231.794 63.3928 233.843 59.5834 235.163 55.2637C236.56 57.1812 237.707 58.8289 238.587 60.174C239.02 60.8338 239.659 61.2238 240.423 61.3077C241.221 61.3952 241.928 61.1145 242.451 60.5312C242.999 59.9771 243.302 59.2809 243.353 58.457C243.4 57.6441 243.176 56.9078 242.689 56.2626L242.682 56.2516C239.832 52.5662 237.84 50.0692 236.556 48.5819C236.967 45.6109 237.177 41.7724 237.184 37.172C237.689 37.2413 238.169 37.1939 238.681 37.0444C239.536 36.7565 240.185 36.2169 240.625 35.4259C241.394 33.9824 242.4 31.9629 243.62 29.433C243.634 29.4038 243.645 29.3783 243.66 29.3492C243.735 29.433 243.815 29.5132 243.901 29.5934C244.803 30.3261 245.597 31.0297 246.272 31.6858C244.439 33.8803 242.375 35.6884 240.138 37.0554C239.583 37.3944 239.222 37.9084 239.085 38.5536C239.027 38.7176 238.998 38.8963 238.998 39.0895C238.998 39.6363 239.186 40.143 239.525 40.5366C239.958 41.0762 240.499 41.448 241.174 41.6521C241.816 41.8162 242.469 41.7505 243.23 41.3204C245.453 39.8732 247.505 38.1052 249.309 36.093C249.414 36.2388 249.533 36.3773 249.666 36.5049C250.24 37.059 250.947 37.3506 251.708 37.3506H262.528C263.404 37.3506 264.173 37.0371 264.808 36.4211C265.024 36.2097 265.208 35.9764 265.353 35.7212C266.904 37.2777 268.52 38.6083 270.172 39.68C270.872 40.1357 271.648 40.2815 272.416 40.0992C273.142 39.9279 273.769 39.5305 274.274 38.9254C274.668 38.4734 274.877 37.9047 274.877 37.2923C274.877 37.1392 274.852 36.9788 274.797 36.8002C274.668 36.093 274.264 35.5243 273.643 35.1562L273.647 35.1671ZM252.365 32.1706C254.306 29.207 255.781 25.9481 256.741 22.4996C256.781 22.3793 256.81 22.2627 256.828 22.1424C258.289 25.8569 260.121 29.2179 262.304 32.1706H252.365Z" fill="#25B2CA"/>
<path d="M213.896 25.9517H204.841C204.79 25.7913 204.718 25.6346 204.599 25.5143L201.305 22.1861C201.009 20.9029 199.851 19.9078 198.506 19.9078C197.16 19.9078 196.121 20.8118 195.76 22.0075C195.699 22.0622 195.63 22.1023 195.573 22.1642L192.257 25.5143C192.138 25.6382 192.066 25.7913 192.012 25.9517H184.201C183.624 25.9517 183.151 26.4147 183.133 26.9906C183.126 27.2786 182.65 29.8121 183.978 31.1973C184.537 31.7769 185.695 32.0868 186.51 32.0868H211.584C212.453 32.0868 213.647 31.7587 214.221 31.1427C215.53 29.7319 214.978 27.2385 214.96 26.9615C214.921 26.3928 214.455 25.9517 213.896 25.9517Z" fill="#25B2CA"/>
<path d="M213.896 62.3174H207.46C208.874 55.6684 210.599 43.2925 211.064 38.3349C211.14 37.5876 210.912 36.8476 210.436 36.2498C209.949 35.6446 209.217 35.2437 208.402 35.1708C206.818 35.0942 205.483 36.2242 205.324 37.8245C204.931 42.2062 203.124 55.2893 201.569 62.3174H195.114C193.56 55.2893 191.752 42.2062 191.359 37.8245C191.2 36.2242 189.869 35.0942 188.281 35.1708C187.466 35.2473 186.734 35.6446 186.247 36.2498C185.767 36.8476 185.543 37.5876 185.619 38.3349C186.088 43.2925 187.812 55.6684 189.223 62.3174H184.201C183.624 62.3174 183.151 62.7804 183.133 63.3564C183.126 63.6443 182.65 66.1778 183.978 67.5631C184.537 68.1427 185.695 68.4525 186.51 68.4525H211.584C212.453 68.4525 213.647 68.1244 214.221 67.5084C215.53 66.0976 214.978 63.6042 214.96 63.3272C214.921 62.7585 214.455 62.3174 213.896 62.3174Z" fill="#25B2CA"/>
<path d="M36.5963 50.0072C36.2716 49.7775 35.8567 49.7593 35.514 49.9525C31.21 52.3548 27.4688 55.5116 24.3987 59.3392C18.9836 66.094 16 74.6131 16 83.3254V86.7958C16 88.0753 16.9416 89.1725 18.1466 89.2965C18.2259 89.3037 18.3053 89.3074 18.3847 89.3074C18.9763 89.3074 19.5536 89.085 19.9937 88.684C20.4952 88.2247 20.7802 87.5722 20.7802 86.8905V83.3254C20.7802 72.2655 26.5236 61.5847 35.7701 55.4533C36.3582 55.0632 36.7117 54.418 36.8019 53.5869C36.8488 53.1567 36.8777 52.7375 36.9065 52.3402C36.939 51.8554 36.9715 51.407 37.0292 51.0169C37.0869 50.6269 36.921 50.2405 36.5963 50.0108V50.0072Z" fill="#25B2CA"/>
<path d="M84.8058 59.3392C81.7357 55.5116 77.9981 52.3511 73.6905 49.9525C73.3442 49.7593 72.9293 49.7812 72.6046 50.0108C72.2799 50.2405 72.1176 50.6233 72.1753 51.017C72.233 51.3961 72.2655 51.8517 72.298 52.3366C72.3268 52.7339 72.3557 53.1531 72.4026 53.5869C72.4892 54.418 72.8463 55.0633 73.4344 55.4533C82.6809 61.5847 88.4243 72.2655 88.4243 83.3254V86.8905C88.4243 87.5722 88.7129 88.2284 89.2108 88.684C89.6509 89.0887 90.2282 89.3074 90.8198 89.3074C90.8992 89.3074 90.9785 89.3038 91.0579 89.2965C92.2629 89.1762 93.2045 88.0753 93.2045 86.7958V83.3254C93.2045 74.6131 90.2209 66.094 84.8058 59.3429V59.3392Z" fill="#25B2CA"/>
<path d="M65.3785 27.9457H43.8262V36.0055H65.3785V27.9457Z" fill="#FFE45F"/>
<path d="M65.3784 27.9457L65.364 24.8836C65.3568 24.3733 65.1547 23.8812 64.7976 23.5203L59.3175 17.9758C56.72 15.3402 52.4809 15.3402 49.8834 17.9758L44.4033 23.5203C44.0462 23.8812 43.8369 24.3733 43.8369 24.8836L43.8225 27.9457H65.3748H65.3784Z" fill="#25B2CA"/>
<path d="M42.2206 47.0618H43.0576L39.1974 78.3022C39.3381 78.335 39.486 78.3532 39.6411 78.3532C40.9002 78.3532 41.6073 77.2013 42.6174 75.3021C43.6096 73.4393 44.7315 71.3287 47.1198 71.3287C49.5081 71.3287 50.6301 73.4393 51.6222 75.3021C52.6324 77.2013 53.3359 78.3532 54.5986 78.3532C55.8612 78.3532 56.5611 77.2013 57.5713 75.3021C58.5634 73.4393 59.6854 71.3287 62.0737 71.3287C64.462 71.3287 65.5876 73.4393 66.5761 75.3021C67.5862 77.2013 68.2897 78.3532 69.5524 78.3532C69.7111 78.3532 69.8627 78.335 70.0034 78.2985L66.1432 47.0618H66.9657C68.5314 47.0618 70.678 46.4749 71.7098 45.3594C74.0656 42.8186 73.0735 38.3239 73.0446 37.8245C72.9761 36.7966 72.1391 36.0055 71.129 36.0055H38.0646C37.0255 36.0055 36.1741 36.8367 36.1417 37.8792C36.1272 38.3969 35.2722 42.9608 37.6605 45.4615C38.667 46.504 40.7523 47.0618 42.217 47.0618H42.2206Z" fill="#25B2CA"/>
<path d="M73.9286 81.8345C73.6869 80.5586 72.4783 79.7895 71.3563 80.3727C70.8368 80.6425 70.1225 80.9487 69.5525 80.9487C67.1642 80.9487 66.0422 78.838 65.0501 76.9753C64.0399 75.0761 63.3364 73.9241 62.0737 73.9241C60.811 73.9241 60.1112 75.0761 59.101 76.9753C58.1089 78.838 56.9869 80.9487 54.5986 80.9487C52.2103 80.9487 51.0847 78.838 50.0962 76.9753C49.0861 75.0761 48.3826 73.9241 47.1199 73.9241C45.8572 73.9241 45.1537 75.0761 44.1435 76.9753C43.1514 78.838 42.0294 80.9487 39.6412 80.9487C39.0747 80.9487 38.3676 80.6425 37.8481 80.3727C36.7261 79.7858 35.5104 80.5768 35.2723 81.8345C35.1857 82.2974 33.7209 90 33.7209 90H75.4763C75.4763 90 74.0512 82.4979 73.925 81.8345H73.9286Z" fill="#25B2CA"/>
</g>
<defs>
<clipPath id="clip0_12_3678">
<rect width="333" height="74" fill="white" transform="translate(16 16)"/>
</clipPath>
</defs>
</svg>
